<?xml version="1.0" standalone="no"?>
<!DOCTYPE svg PUBLIC "-//W3C//DTD SVG 20010904//EN"
 "http://www.w3.org/TR/2001/REC-SVG-20010904/DTD/svg10.dtd">
<svg version="1.0" xmlns="http://www.w3.org/2000/svg" 
 viewBox="0 0 512.000000 512.000000"
 preserveAspectRatio="xMidYMid meet">

<g transform="translate(0.000000,512.000000) scale(0.100000,-0.100000)"
fill="#ffffff" stroke="none">
<path d="M2320 5109 c-491 -47 -981 -246 -1366 -557 -599 -482 -954 -1224
-954 -1992 0 -577 204 -1155 568 -1606 482 -599 1224 -954 1992 -954 577 0
1155 204 1606 568 599 482 954 1224 954 1992 0 577 -204 1155 -568 1606 -433
538 -1071 879 -1767 944 -125 11 -340 11 -465 -1z m-168 -1929 l3 -970 360
517 c198 284 367 525 375 535 14 17 30 18 211 16 l197 -3 -340 -473 -339 -473
353 -671 c194 -369 355 -675 356 -679 2 -5 -88 -9 -200 -9 l-203 0 -263 526
c-145 290 -267 523 -271 518 -4 -5 -60 -66 -124 -136 l-117 -126 0 -391 0
-391 -180 0 -180 0 0 1583 c0 871 3 1587 7 1590 3 4 84 7 180 7 l173 0 2 -970z"/>
</g>
</svg>
